<svg width="40" height="40" viewBox="0 0 40 40" fill="none" xmlns="http://www.w3.org/2000/svg">
<rect width="40" height="40" fill="#F8F8F8"/>
<g clip-path="url(#clip0_10_22)">
<path fill-rule="evenodd" clip-rule="evenodd" d="M29.0678 8C30.6861 8 32 9.31391 32 10.9322V29.0678C32 30.6861 30.6861 32 29.0678 32H10.9322C9.31391 32 8 30.6861 8 29.0678V10.9322C8 9.31391 9.31386 8 10.9322 8H29.0678V8ZM29.3605 23.4995C29.4035 22.8515 29.3508 22.2328 29.2008 21.6404C29.0494 21.047 28.8066 20.518 28.4667 20.0556C28.1263 19.5922 27.6927 19.2221 27.1646 18.9487C26.6338 18.6718 26.0156 18.536 25.3091 18.536C24.6691 18.536 24.0912 18.6496 23.5671 18.8755C23.0435 19.1027 22.5939 19.4134 22.2144 19.8071C21.8359 20.1985 21.5474 20.6653 21.3397 21.2064C21.1355 21.7456 21.0312 22.3288 21.0312 22.9532C21.0312 23.5989 21.1316 24.1949 21.3308 24.7333C21.5323 25.2742 21.815 25.7349 22.1789 26.1245C22.5526 26.5129 22.9964 26.8102 23.5276 27.0228C24.0593 27.2323 24.6514 27.3388 25.3091 27.3388C26.253 27.3388 27.0625 27.1227 27.7269 26.6891C28.3992 26.2568 28.8914 25.5392 29.2163 24.534H27.1961C27.118 24.7923 26.9156 25.0413 26.5832 25.2742C26.2477 25.5077 25.8483 25.6244 25.3858 25.6244C24.7423 25.6244 24.2457 25.4558 23.9018 25.1202C23.5574 24.7847 23.3346 24.1599 23.3346 23.4995H29.3605V23.4995ZM16.2142 27.1227C16.7317 27.1227 17.2363 27.0575 17.7223 26.9287C18.214 26.7996 18.652 26.6007 19.0341 26.3305C19.4132 26.0624 19.7207 25.715 19.9466 25.2862C20.1707 24.8624 20.2826 24.3591 20.2826 23.7742C20.2826 23.0526 20.1108 22.4375 19.7607 21.9231C19.4123 21.4123 18.8859 21.0532 18.1772 20.8491C18.6978 20.6023 19.0879 20.285 19.3532 19.898C19.6173 19.5102 19.7487 19.0251 19.7487 18.4446C19.7487 17.908 19.6603 17.454 19.485 17.0915C19.3048 16.7235 19.0532 16.4315 18.7319 16.2118C18.4053 15.9921 18.0196 15.8319 17.567 15.7361C17.112 15.6371 16.6141 15.5896 16.0625 15.5896H10.625V27.1227H16.2142V27.1227ZM15.9249 21.9826C16.4712 21.9826 16.9154 22.1082 17.2492 22.3611C17.5816 22.6172 17.7493 23.0397 17.7493 23.6339C17.7493 23.9371 17.7001 24.1883 17.5976 24.3818C17.4955 24.5761 17.3544 24.7297 17.1848 24.8415C17.0144 24.9578 16.8133 25.0368 16.5861 25.0861C16.3625 25.1362 16.1246 25.1584 15.8747 25.1584H13.164V21.9826H15.9249ZM26.5375 20.7324C26.2646 20.4311 25.8035 20.2677 25.2402 20.2677C24.8737 20.2677 24.5705 20.3294 24.3274 20.455C24.0895 20.5793 23.8951 20.7333 23.7464 20.9152C23.5982 21.0998 23.4979 21.2951 23.4389 21.5037C23.3803 21.707 23.3448 21.8911 23.3346 22.054H27.0661C27.0115 21.4691 26.8113 21.0364 26.5375 20.7324V20.7324ZM15.5401 17.5543C15.7651 17.5543 15.9839 17.5703 16.1934 17.6111C16.406 17.648 16.5897 17.7154 16.7521 17.8135C16.9154 17.908 17.0455 18.0425 17.1435 18.2147C17.2381 18.3869 17.2847 18.6088 17.2847 18.8768C17.2847 19.3606 17.1435 19.7125 16.8515 19.926C16.5564 20.1425 16.1836 20.2491 15.734 20.2491H13.164V17.5543H15.5401V17.5543ZM27.54 17.5015V16.3636H22.865V17.5015H27.54Z" fill="#777777"/>
</g>
<defs>
<clipPath id="clip0_10_22">
<rect width="24" height="24" fill="white" transform="translate(8 8)"/>
</clipPath>
</defs>
</svg>
