<svg width="40" height="40" viewBox="0 0 40 40" fill="none" xmlns="http://www.w3.org/2000/svg">
<rect width="40" height="40" fill="#F8F8F8"/>
<g clip-path="url(#clip0_10_24)">
<path fill-rule="evenodd" clip-rule="evenodd" d="M29.0678 8C30.6861 8 32 9.31391 32 10.9322V29.0678C32 30.6861 30.6861 32 29.0678 32H24.0771V22.9571H27.199L27.793 19.0843H24.0771V16.571C24.0771 15.5114 24.5961 14.4786 26.2605 14.4786H27.95V11.1815C27.95 11.1815 26.4167 10.9198 24.9508 10.9198C21.8905 10.9198 19.8902 12.7746 19.8902 16.1325V19.0843H16.4884V22.9571H19.8902V32H10.9322C9.31391 32 8 30.6861 8 29.0678V10.9322C8 9.31391 9.31386 8 10.9322 8H29.0678V8Z" fill="#777777"/>
</g>
<defs>
<clipPath id="clip0_10_24">
<rect width="24" height="24" fill="white" transform="translate(8 8)"/>
</clipPath>
</defs>
</svg>
