<svg width="40" height="40" viewBox="0 0 40 40" fill="none" xmlns="http://www.w3.org/2000/svg">
<rect width="40" height="40" fill="#F8F8F8"/>
<g clip-path="url(#clip0_10_21)">
<path d="M20.6477 18.6758V18.6392C20.6401 18.6515 20.632 18.6639 20.6239 18.6758H20.6477Z" fill="#777777"/>
<path d="M29.782 8H9.73748C8.77808 8 8 8.75952 8 9.6956V29.9747C8 30.9103 8.77808 31.6698 9.73748 31.6698H29.782C30.7428 31.6698 31.5209 30.9098 31.5209 29.9747V9.6956C31.5209 8.75904 30.7423 8 29.782 8ZM15.1293 27.8146H11.5768V17.1266H15.1293V27.8146ZM13.3533 15.6666H13.3295C12.1379 15.6666 11.3669 14.8457 11.3669 13.8201C11.3669 12.7718 12.1617 11.9737 13.3766 11.9737C14.592 11.9737 15.3397 12.7718 15.3634 13.8201C15.3634 14.8457 14.5916 15.6666 13.3533 15.6666ZM27.9398 27.8146H24.3873V22.0954C24.3873 20.6592 23.8733 19.6788 22.5879 19.6788C21.6067 19.6788 21.0223 20.3398 20.7648 20.9785C20.6711 21.2064 20.6482 21.5253 20.6482 21.8451V27.8142H17.0957C17.0957 27.8142 17.1423 18.1279 17.0957 17.1261H20.6482V18.639C21.1203 17.9109 21.9645 16.8739 23.8505 16.8739C26.1876 16.8739 27.9403 18.402 27.9403 21.6852V27.8146H27.9398Z" fill="#777777"/>
</g>
<defs>
<clipPath id="clip0_10_21">
<rect width="24" height="24" fill="white" transform="translate(8 8)"/>
</clipPath>
</defs>
</svg>
