<svg width="40" height="40" viewBox="0 0 40 40" fill="none" xmlns="http://www.w3.org/2000/svg">
<rect width="40" height="40" fill="#BEAD8E"/>
<g clip-path="url(#clip0_10_23)">
<path d="M29 32H11C9.344 32 8 30.656 8 29V11C8 9.344 9.344 8 11 8H29C30.656 8 32 9.344 32 11V29C32 30.656 30.656 32 29 32ZM17.216 26.096C22.874 26.096 25.97 21.404 25.97 17.342C25.97 17.21 25.97 17.078 25.964 16.946C26.564 16.514 27.086 15.968 27.5 15.35C26.948 15.596 26.354 15.758 25.73 15.836C26.366 15.458 26.852 14.852 27.086 14.132C26.492 14.486 25.832 14.738 25.13 14.876C24.566 14.276 23.768 13.904 22.886 13.904C21.188 13.904 19.808 15.284 19.808 16.982C19.808 17.222 19.838 17.456 19.886 17.684C17.33 17.558 15.062 16.328 13.544 14.468C13.28 14.924 13.13 15.452 13.13 16.016C13.13 17.084 13.676 18.026 14.498 18.578C13.994 18.56 13.52 18.422 13.106 18.194V18.236C13.106 19.724 14.168 20.972 15.572 21.254C15.314 21.326 15.044 21.362 14.762 21.362C14.564 21.362 14.372 21.344 14.186 21.308C14.576 22.532 15.716 23.42 17.06 23.444C16.004 24.272 14.678 24.764 13.238 24.764C12.992 24.764 12.746 24.752 12.506 24.722C13.862 25.586 15.482 26.096 17.216 26.096V26.096Z" fill="white"/>
</g>
<defs>
<clipPath id="clip0_10_23">
<rect width="24" height="24" fill="white" transform="translate(8 8)"/>
</clipPath>
</defs>
</svg>
