<svg width="40" height="40" viewBox="0 0 40 40" fill="none" xmlns="http://www.w3.org/2000/svg">
<rect width="40" height="40" fill="#F8F8F8"/>
<g clip-path="url(#clip0_10_20)">
<path fill-rule="evenodd" clip-rule="evenodd" d="M29.0678 8C30.6861 8 32 9.31391 32 10.9322V29.0678C32 30.6861 30.6861 32 29.0678 32H10.9322C9.31391 32 8 30.6861 8 29.0678V10.9322C8 9.31391 9.31386 8 10.9322 8H29.0678V8ZM28.085 16.2327C27.8909 15.5066 27.3192 14.9348 26.5931 14.7408C25.277 14.3881 20 14.3881 20 14.3881C20 14.3881 14.723 14.3881 13.4069 14.7408C12.681 14.9348 12.1091 15.5066 11.915 16.2327C11.5625 17.5487 11.5625 20.2945 11.5625 20.2945C11.5625 20.2945 11.5625 23.0402 11.915 24.3561C12.1091 25.0821 12.681 25.6541 13.4069 25.8481C14.723 26.2006 20 26.2006 20 26.2006C20 26.2006 25.277 26.2006 26.5931 25.8481C27.3192 25.6541 27.8909 25.0821 28.085 24.3561C28.4375 23.0402 28.4375 20.2945 28.4375 20.2945C28.4375 20.2945 28.4375 17.5487 28.085 16.2327V16.2327ZM18.3124 22.8258V17.7632L22.6966 20.2945L18.3124 22.8258V22.8258Z" fill="#777777"/>
</g>
<defs>
<clipPath id="clip0_10_20">
<rect width="24" height="24" fill="white" transform="translate(8 8)"/>
</clipPath>
</defs>
</svg>
