<svg width="246" height="80" viewBox="0 0 246 80" fill="none" xmlns="http://www.w3.org/2000/svg">
<rect width="80" height="80" fill="#BEAD8E"/>
<path d="M27.54 53.8301V26.3901H33.5V37.2701H45.66V26.3901H51.62V53.8301H45.66V42.3101H33.5V53.8301H27.54Z" fill="white"/>
<path d="M110.086 36.3999V18.5639H113.96V25.6359H121.864V18.5639H125.738V36.3999H121.864V28.9119H113.96V36.3999H110.086ZM140.608 36.7119C138.718 36.7119 137.089 36.3739 135.72 35.6979C134.35 35.0219 133.302 33.9992 132.574 32.6299C131.846 31.2606 131.482 29.5446 131.482 27.4819C131.482 25.3846 131.846 23.6599 132.574 22.3079C133.302 20.9386 134.35 19.9246 135.72 19.2659C137.089 18.5899 138.718 18.2519 140.608 18.2519C142.532 18.2519 144.17 18.5899 145.522 19.2659C146.891 19.9246 147.94 20.9386 148.668 22.3079C149.396 23.6599 149.76 25.3846 149.76 27.4819C149.76 29.5446 149.396 31.2606 148.668 32.6299C147.94 33.9992 146.891 35.0219 145.522 35.6979C144.17 36.3739 142.532 36.7119 140.608 36.7119ZM140.608 33.5399C141.457 33.5399 142.202 33.4186 142.844 33.1759C143.485 32.9332 144.022 32.5692 144.456 32.0839C144.889 31.5986 145.218 31.0092 145.444 30.3159C145.669 29.6052 145.782 28.7992 145.782 27.8979V27.0919C145.782 26.1732 145.669 25.3586 145.444 24.6479C145.218 23.9372 144.889 23.3479 144.456 22.8799C144.022 22.3946 143.485 22.0306 142.844 21.7879C142.202 21.5452 141.457 21.4239 140.608 21.4239C139.776 21.4239 139.039 21.5452 138.398 21.7879C137.756 22.0306 137.219 22.3946 136.786 22.8799C136.352 23.3479 136.023 23.9372 135.798 24.6479C135.59 25.3586 135.486 26.1732 135.486 27.0919V27.8979C135.486 28.7992 135.59 29.6052 135.798 30.3159C136.023 31.0092 136.352 31.5986 136.786 32.0839C137.219 32.5692 137.756 32.9332 138.398 33.1759C139.039 33.4186 139.776 33.5399 140.608 33.5399ZM159.213 36.3999V21.8139H153.493V18.5639H168.859V21.8139H163.113V36.3999H159.213ZM174.075 36.3999V18.5639H188.323V21.7359H177.975V25.7139H187.127V28.8599H177.975V33.2019H188.479V36.3999H174.075ZM194.423 36.3999V18.5639H198.297V33.0979H207.293V36.3999H194.423ZM110.346 64.3999V46.5639H114.168L118.224 58.1339C118.328 58.4459 118.432 58.7926 118.536 59.1739C118.657 59.5379 118.761 59.8846 118.848 60.2139C118.952 60.5432 119.03 60.8292 119.082 61.0719H119.264C119.316 60.8119 119.385 60.5172 119.472 60.1879C119.559 59.8412 119.654 59.4859 119.758 59.1219C119.862 58.7579 119.957 58.4286 120.044 58.1339L124.1 46.5639H127.896V64.3999H125.426V53.9479C125.426 53.4106 125.435 52.8299 125.452 52.2059C125.469 51.5646 125.487 50.9839 125.504 50.4639C125.521 49.9266 125.53 49.5452 125.53 49.3199H125.322C125.27 49.5452 125.183 49.8659 125.062 50.2819C124.941 50.6806 124.811 51.1052 124.672 51.5559C124.551 51.9892 124.438 52.3792 124.334 52.7259L120.148 64.3999H118.016L113.83 52.7259C113.726 52.4312 113.613 52.0932 113.492 51.7119C113.388 51.3132 113.275 50.9059 113.154 50.4899C113.05 50.0739 112.946 49.6839 112.842 49.3199H112.66C112.677 49.7012 112.686 50.1779 112.686 50.7499C112.703 51.3046 112.712 51.8679 112.712 52.4399C112.729 52.9946 112.738 53.4972 112.738 53.9479V64.3999H110.346ZM134.96 64.3999V46.5639H137.43V64.3999H134.96ZM144.491 64.3999V46.5639H153.877C155.091 46.5639 156.096 46.7892 156.893 47.2399C157.708 47.6732 158.315 48.2886 158.713 49.0859C159.112 49.8659 159.311 50.7672 159.311 51.7899C159.311 53.0206 159.034 54.0779 158.479 54.9619C157.925 55.8459 157.162 56.4786 156.191 56.8599L159.935 64.3999H157.231L153.747 57.3019H146.961V64.3999H144.491ZM146.961 55.1959H153.643C154.631 55.1959 155.403 54.8926 155.957 54.2859C156.529 53.6792 156.815 52.8472 156.815 51.7899C156.815 51.1312 156.694 50.5766 156.451 50.1259C156.209 49.6752 155.853 49.3286 155.385 49.0859C154.917 48.8259 154.337 48.6959 153.643 48.6959H146.961V55.1959ZM163.928 64.3999L170.974 46.5639H174.224L181.296 64.3999H178.618L176.876 59.9799H168.192L166.476 64.3999H163.928ZM168.998 57.8739H176.044L173.886 52.2839C173.834 52.1279 173.756 51.9112 173.652 51.6339C173.548 51.3566 173.435 51.0532 173.314 50.7239C173.193 50.3772 173.071 50.0306 172.95 49.6839C172.829 49.3199 172.716 48.9906 172.612 48.6959H172.456C172.335 49.0426 172.196 49.4412 172.04 49.8919C171.884 50.3426 171.728 50.7846 171.572 51.2179C171.416 51.6339 171.286 51.9892 171.182 52.2839L168.998 57.8739ZM186.305 64.3999V46.5639H188.697L197.355 58.3159C197.441 58.4199 197.554 58.5759 197.693 58.7839C197.831 58.9919 197.97 59.1999 198.109 59.4079C198.247 59.5986 198.36 59.7719 198.447 59.9279H198.551C198.551 59.6506 198.551 59.3819 198.551 59.1219C198.551 58.8446 198.551 58.5759 198.551 58.3159V46.5639H200.969V64.3999H198.707L189.945 52.4399C189.823 52.2492 189.641 51.9806 189.399 51.6339C189.173 51.2872 188.983 51.0099 188.827 50.8019H188.697C188.697 51.0792 188.697 51.3566 188.697 51.6339C188.697 51.8939 188.697 52.1626 188.697 52.4399V64.3999H186.305ZM208.049 64.3999V46.5639H214.705C216.577 46.5639 218.172 46.8759 219.489 47.4999C220.806 48.1239 221.812 49.0946 222.505 50.4119C223.216 51.7119 223.571 53.4019 223.571 55.4819C223.571 57.5272 223.216 59.2086 222.505 60.5259C221.812 61.8432 220.806 62.8226 219.489 63.4639C218.172 64.0879 216.577 64.3999 214.705 64.3999H208.049ZM210.519 62.2679H214.653C215.641 62.2679 216.525 62.1466 217.305 61.9039C218.085 61.6439 218.752 61.2539 219.307 60.7339C219.862 60.2139 220.278 59.5466 220.555 58.7319C220.85 57.8999 220.997 56.9119 220.997 55.7679V55.2479C220.997 54.0692 220.85 53.0726 220.555 52.2579C220.278 51.4259 219.862 50.7499 219.307 50.2299C218.77 49.7099 218.111 49.3286 217.331 49.0859C216.551 48.8259 215.658 48.6959 214.653 48.6959H210.519V62.2679ZM227.359 64.3999L234.405 46.5639H237.655L244.727 64.3999H242.049L240.307 59.9799H231.623L229.907 64.3999H227.359ZM232.429 57.8739H239.475L237.317 52.2839C237.265 52.1279 237.187 51.9112 237.083 51.6339C236.979 51.3566 236.866 51.0532 236.745 50.7239C236.623 50.3772 236.502 50.0306 236.381 49.6839C236.259 49.3199 236.147 48.9906 236.043 48.6959H235.887C235.765 49.0426 235.627 49.4412 235.471 49.8919C235.315 50.3426 235.159 50.7846 235.003 51.2179C234.847 51.6339 234.717 51.9892 234.613 52.2839L232.429 57.8739Z" fill="#111111"/>
</svg>
